PathFileType	4	(X/Y/Z)	RBDS014static.trc
DataRate	CameraRate	NumFrames	NumMarkers	Units	OrigDataRate	OrigDataStartFrame	OrigNumFrames
150.000000	150.000000	4	48	mm	150.000000	18	150
Frame#	Time	L.Ankle			L.Ankle.Medial			L.ASIS			L.GTR			L.Heel.Bottom			L.Heel.Lateral			L.Heel.Top			L.HF			L.Iliac.Crest			L.Knee			L.Knee.Medial			L.MT1			L.MT2			L.MT5			L.PSIS			L.Shank.Bottom.Lateral			L.Shank.Bottom.Medial			L.Shank.Top.Lateral			L.Shank.Top.Medial			L.Thigh.Bottom.Lateral			L.Thigh.Bottom.Medial			L.Thigh.Top.Lateral			L.Thigh.Top.Medial			L.TT			R.Ankle			R.Ankle.Medial			R.ASIS			R.GTR			R.Heel.Bottom			R.Heel.Lateral			R.Heel.Top			R.HF			R.Iliac.Crest			R.Knee			R.Knee.Medial			R.MT1			R.MT2			R.MT5			R.PSIS			R.Shank.Bottom.Lateral			R.Shank.Bottom.Medial			R.Shank.Top.Lateral			R.Shank.Top.Medial			R.Thigh.Bottom.Lateral			R.Thigh.Bottom.Medial			R.Thigh.Top.Lateral			R.Thigh.Top.Medial			R.TT			
		X1	Y1	Z1	X2	Y2	Z2	X3	Y3	Z3	X4	Y4	Z4	X5	Y5	Z5	X6	Y6	Z6	X7	Y7	Z7	X8	Y8	Z8	X9	Y9	Z9	X10	Y10	Z10	X11	Y11	Z11	X12	Y12	Z12	X13	Y13	Z13	X14	Y14	Z14	X15	Y15	Z15	X16	Y16	Z16	X17	Y17	Z17	X18	Y18	Z18	X19	Y19	Z19	X20	Y20	Z20	X21	Y21	Z21	X22	Y22	Z22	X23	Y23	Z23	X24	Y24	Z24	X25	Y25	Z25	X26	Y26	Z26	X27	Y27	Z27	X28	Y28	Z28	X29	Y29	Z29	X30	Y30	Z30	X31	Y31	Z31	X32	Y32	Z32	X33	Y33	Z33	X34	Y34	Z34	X35	Y35	Z35	X36	Y36	Z36	X37	Y37	Z37	X38	Y38	Z38	X39	Y39	Z39	X40	Y40	Z40	X41	Y41	Z41	X42	Y42	Z42	X43	Y43	Z43	X44	Y44	Z44	X45	Y45	Z45	X46	Y46	Z46	X47	Y47	Z47	X48	Y48	Z48	

19	0.12	714.9041748046875	108.1021957397461	1042.288208007813	740.4192504882813	118.7277069091797	1127.967041015625	859.3705444335938	1133.474731445313	1110.438720703125	778.7232055664063	1022.712158203125	1053.383911132813	643.39404296875	41.50576782226563	1085.352661132813	665.8909301757813	65.23945617675781	1045.115356445313	652.9705810546875	92.15829467773438	1087.246215820313	777.5814819335938	523.6822509765625	1039.372680664063	781.95263671875	1191.883422851563	1070.080810546875	786.7379760742188	596.6233520507813	1050.216552734375	781.14306640625	576.4739379882813	1173.498779296875	876.776123046875	57.78933715820313	1132.560180664063	886.5734252929688	69.31090545654297	1088.679809570313	840.1028442382813	51.18165588378906	1013.361999511719	677.6627197265625	1150.01513671875	1184.428466796875	725.6616821289063	207.8276519775391	1031.485961914063	682.6360473632813	210.6072540283203	1066.28955078125	722.0130615234375	287.7806701660156	1021.62060546875	680.6841430664063	291.1936340332031	1056.06591796875	782.1671752929688	753.6920776367188	1030.898193359375	720.7600708007813	748.2838745117188	1069.425415039063	767.2499389648438	863.470703125	1028.92919921875	712.0588989257813	858.4716186523438	1069.052490234375	831.4053955078125	494.3136596679688	1097.2353515625	721.004150390625	108.2348327636719	1417.626708984375	748.2296752929688	126.1301879882813	1332.447387695313	861.3629760742188	1142.286743164063	1356.976440429688	796.8297119140625	1032.276123046875	1412.108032226563	646.15283203125	43.06491470336914	1374.231567382813	669.60791015625	66.40687561035156	1412.301879882813	654.9655151367188	95.04194641113281	1371.766235351563	786.9390258789063	535.345947265625	1420.718994140625	797.9485473632813	1208.470825195313	1382.283935546875	790.3292236328125	606.2096557617188	1411.896850585938	787.2424926757813	582.3513793945313	1287.46533203125	879.3546142578125	58.66752624511719	1326.965942382813	890.1302490234375	72.50934600830078	1371.493408203125	846.9619750976563	51.70327758789063	1448.489135742188	685.7020263671875	1158.722778320313	1278.558349609375	713.99755859375	208.4210052490234	1422.76025390625	684.1831665039063	215.8287658691406	1381.774536132813	715.0057983398438	292.5685119628906	1434.969970703125	682.861083984375	295.9745788574219	1392.80126953125	809.4932250976563	736.171630859375	1428.8515625	741.0606689453125	733.0130615234375	1403.242797851563	799.0291137695313	844.980712890625	1436.294311523438	734.36669921875	842.7017211914063	1409.927978515625	837.5722045898438	499.9693298339844	1358.478515625	
20	0.1266666666666667	714.9016723632813	108.1036911010742	1042.287475585938	740.420166015625	118.7358932495117	1127.962280273438	859.3612060546875	1133.467407226563	1110.415405273438	778.722900390625	1022.696594238281	1053.354125976563	643.3969116210938	41.49485397338867	1085.349365234375	665.8831176757813	65.24485778808594	1045.12255859375	652.9635009765625	92.16172027587891	1087.2490234375	777.6043090820313	523.6747436523438	1039.3720703125	781.9356079101563	1191.880249023438	1070.052612304688	786.7537841796875	596.6211547851563	1050.215087890625	781.1712646484375	576.476318359375	1173.489501953125	876.7754516601563	57.80002975463867	1132.559936523438	886.5847778320313	69.31901550292969	1088.679809570313	840.1041870117188	51.18588638305664	1013.358520507813	677.655029296875	1150.00830078125	1184.41552734375	725.6725463867188	207.8212585449219	1031.486206054688	682.6369018554688	210.6083221435547	1066.283203125	722.0283203125	287.7843627929688	1021.617736816406	680.697998046875	291.1946105957031	1056.059692382813	782.1841430664063	753.6904296875	1030.901123046875	720.7860717773438	748.2724609375	1069.425170898438	767.2525024414063	863.4620361328125	1028.9169921875	712.0593872070313	858.4668579101563	1069.038696289063	831.4297485351563	494.3115844726563	1097.236328125	721.016845703125	108.2357482910156	1417.63525390625	748.2490234375	126.1284713745117	1332.449096679688	861.3642578125	1142.28173828125	1356.956176757813	796.8345947265625	1032.267944335938	1412.097778320313	646.1460571289063	43.06950378417969	1374.244018554688	669.6119995117188	66.4072265625	1412.302368164063	654.9583129882813	95.05148315429688	1371.767333984375	786.9553833007813	535.3561401367188	1420.707153320313	797.946044921875	1208.459594726563	1382.325927734375	790.3510131835938	606.2106323242188	1411.882568359375	787.2362060546875	582.3434448242188	1287.457153320313	879.3631591796875	58.6652717590332	1326.976806640625	890.1300659179688	72.51157379150391	1371.49169921875	846.9669799804688	51.69682693481445	1448.482543945313	685.7081298828125	1158.714477539063	1278.551391601563	713.9978637695313	208.4243927001953	1422.758056640625	684.1837768554688	215.8380584716797	1381.770874023438	715.0199584960938	292.5663146972656	1434.976196289063	682.8707885742188	295.9780883789063	1392.79296875	809.5209350585938	736.169189453125	1428.84326171875	741.076171875	733.005859375	1403.231811523438	799.0555419921875	844.9772338867188	1436.280639648438	734.37646484375	842.6914672851563	1409.916015625	837.5724487304688	499.9761657714844	1358.48486328125	
21	0.1333333333333333	714.9150390625	108.1010437011719	1042.290893554688	740.4198608398438	118.7316055297852	1127.96923828125	859.352783203125	1133.472290039063	1110.418334960938	778.7123413085938	1022.701721191406	1053.341064453125	643.3936767578125	41.50054550170898	1085.350830078125	665.8897094726563	65.23844909667969	1045.118408203125	652.96923828125	92.15853118896484	1087.244384765625	777.6262817382813	523.6710205078125	1039.36865234375	781.9260864257813	1191.86572265625	1070.053344726563	786.7898559570313	596.6058959960938	1050.213012695313	781.2020263671875	576.4716186523438	1173.493530273438	876.7792358398438	57.79740524291992	1132.5615234375	886.5773315429688	69.31351470947266	1088.679809570313	840.1062622070313	51.18729019165039	1013.359252929688	677.6431884765625	1150.0068359375	1184.410034179688	725.6786499023438	207.8204040527344	1031.478759765625	682.6512451171875	210.6055450439453	1066.272216796875	722.0415649414063	287.7758178710938	1021.611145019531	680.71044921875	291.2008972167969	1056.059936523438	782.2037963867188	753.6837158203125	1030.879028320313	720.8048095703125	748.2609252929688	1069.419067382813	767.2724609375	863.4642333984375	1028.908081054688	712.0790405273438	858.453125	1069.032836914063	831.4552612304688	494.3100891113281	1097.228515625	721.0036010742188	108.2425918579102	1417.636596679688	748.244384765625	126.1352386474609	1332.442016601563	861.3575439453125	1142.282836914063	1356.942626953125	796.8251953125	1032.283203125	1412.079467773438	646.1533203125	43.06894302368164	1374.241088867188	669.6083374023438	66.41635131835938	1412.288818359375	654.9642333984375	95.05228424072266	1371.752197265625	786.9715576171875	535.3536987304688	1420.692749023438	797.9383544921875	1208.433837890625	1382.281494140625	790.355224609375	606.2000122070313	1411.865234375	787.2498168945313	582.342529296875	1287.451782226563	879.36083984375	58.66833114624023	1326.963256835938	890.1383666992188	72.50634002685547	1371.496948242188	846.9559936523438	51.69858551025391	1448.4814453125	685.7078247070313	1158.710205078125	1278.529907226563	714.0098266601563	208.4259490966797	1422.757446289063	684.1943359375	215.8361968994141	1381.776611328125	715.0284423828125	292.5609741210938	1434.964721679688	682.8775024414063	295.9747009277344	1392.794311523438	809.5244140625	736.1685180664063	1428.823852539063	741.0942993164063	733.0009765625	1403.228637695313	799.0504760742188	844.97998046875	1436.256469726563	734.3803100585938	842.6807861328125	1409.89892578125	837.59228515625	499.9721374511719	1358.46484375	
22	0.14	714.9146728515625	108.1039810180664	1042.289672851563	740.4146728515625	118.7329483032227	1127.968994140625	859.3515014648438	1133.473022460938	1110.418823242188	778.720947265625	1022.694091796875	1053.33203125	643.39306640625	41.50914001464844	1085.3544921875	665.8890380859375	65.23748779296875	1045.120971679688	652.9597778320313	92.15586090087891	1087.244262695313	777.6586303710938	523.6602783203125	1039.372924804688	781.919677734375	1191.864990234375	1070.040161132813	786.8181762695313	596.60546875	1050.207275390625	781.2315063476563	576.4694213867188	1173.47412109375	876.7765502929688	57.80131149291992	1132.582153320313	886.5794067382813	69.30995178222656	1088.688232421875	840.107666015625	51.17835235595703	1013.358764648438	677.64990234375	1149.997680664063	1184.377807617188	725.6845092773438	207.812255859375	1031.48388671875	682.64794921875	210.6087188720703	1066.279418945313	722.0531616210938	287.7770690917969	1021.615478515625	680.7295532226563	291.2022705078125	1056.05615234375	782.2259521484375	753.6773071289063	1030.874633789063	720.8139038085938	748.2637329101563	1069.404174804688	767.2876586914063	863.4568481445313	1028.9013671875	712.0906372070313	858.4449462890625	1069.011352539063	831.483642578125	494.3060607910156	1097.236938476563	721.0128173828125	108.2449951171875	1417.625854492188	748.2406005859375	126.1549530029297	1332.426147460938	861.361572265625	1142.278686523438	1356.91845703125	796.8312377929688	1032.288940429688	1412.07275390625	646.1571655273438	43.07290267944336	1374.23291015625	669.6080322265625	66.42038726806641	1412.294189453125	654.9649658203125	95.05680847167969	1371.762573242188	786.9838256835938	535.34423828125	1420.677978515625	797.93994140625	1208.419921875	1382.292602539063	790.3836059570313	606.21435546875	1411.85546875	787.27978515625	582.3496704101563	1287.43798828125	879.3701782226563	58.66535186767578	1326.97314453125	890.130615234375	72.50852203369141	1371.492065429688	846.9620361328125	51.70118713378906	1448.48046875	685.6978149414063	1158.71337890625	1278.505859375	714.0191650390625	208.4262084960938	1422.746704101563	684.19580078125	215.833984375	1381.778442382813	715.04150390625	292.5723571777344	1434.970581054688	682.8875732421875	295.9854125976563	1392.800903320313	809.5502319335938	736.1734008789063	1428.819702148438	741.1090698242188	732.9978637695313	1403.212036132813	799.0652465820313	844.9852905273438	1436.231811523438	734.3939819335938	842.6814575195313	1409.876953125	837.6093139648438	499.9681396484375	1358.456298828125	
